<svg width="1024" height="1024" viewBox="0 0 1024 1024" fill="none" xmlns="http://www.w3.org/2000/svg">
<path d="M580.009 18.4478C576.283 18.1826 572.556 17.3868 568.83 17.1216C564.837 16.8564 560.312 16.0608 556.053 15.7956C554.456 15.7956 552.593 15.7956 550.996 15.5304C548.6 15.5304 546.204 15.5304 543.809 15.2652H539.017C535.557 15.2652 532.097 15.2652 528.37 15H502.018C498.558 15 494.831 15 491.371 15.2652H486.314C483.918 15.2652 481.788 15.2652 479.393 15.5304C477.796 15.5304 475.666 15.5304 473.803 15.7956C469.278 16.0608 465.019 16.5912 460.228 17.1216C456.767 17.3868 453.041 17.9173 449.581 18.4478C417.106 22.6911 385.431 29.8518 354.82 39.9298C149.062 107.559 0 302.223 0 532.427C0 744.065 126.17 926.265 306.907 1006.62C314.893 1010.07 322.878 1010.07 330.065 1007.42C340.978 1003.18 349.496 992.833 350.295 979.838V748.839C350.295 722.318 336.986 698.183 315.691 683.066C298.922 671.397 283.217 658.137 268.843 643.285C236.635 610.929 211.348 572.208 194.046 530.305C185.528 509.353 179.14 487.606 174.615 465.593C167.162 428.464 198.571 397.434 236.369 397.434C274.167 397.434 303.713 429.26 315.691 465.328C317.022 469.837 318.885 474.08 320.482 478.058C331.13 503.519 346.036 527.122 365.733 546.218C385.165 565.843 408.056 581.491 433.343 592.099C451.444 599.79 470.343 604.564 489.774 606.951H538.219C557.118 604.829 575.75 600.055 593.585 592.364C618.872 581.756 642.03 566.374 661.727 546.748C681.158 527.388 696.597 504.049 707.244 478.589C708.841 474.345 710.704 469.837 712.035 465.859C724.28 429.525 754.092 398.23 791.624 398.23C829.155 398.23 860.565 429.525 853.112 466.919C848.586 488.932 842.198 510.679 833.414 531.631C816.112 573.799 790.293 612.255 758.351 644.346C741.315 661.584 722.416 676.436 702.719 689.431C687.281 699.509 678.23 716.748 678.23 735.313V979.838C679.295 997.076 699.791 1012.99 715.762 1006.36C898.362 928.387 1024 740.617 1024 528.183C1024 266.685 830.22 50.8034 579.211 18.9781H580.009V18.4478ZM516.658 526.327C445.322 527.388 387.56 469.306 387.56 397.699C387.56 326.092 444.523 269.072 515.061 269.072C585.599 269.072 643.627 327.684 642.562 399.291C641.497 470.898 585.599 524.735 516.658 525.796V526.327Z" fill="url(#paint0_linear_5090_927)"/>
<defs>
<linearGradient id="paint0_linear_5090_927" x1="512.133" y1="14.4696" x2="512.133" y2="1009.01" gradientUnits="userSpaceOnUse">
<stop stop-color="#FABB15"/>
<stop offset="0.5" stop-color="#48C84F"/>
<stop offset="1" stop-color="#63DEF3"/>
</linearGradient>
</defs>
</svg>
